# Blender v3.0.0 OBJ File: 'stargate2.blend'
# www.blender.org
mtllib ChevronInner.mtl
o innerchevron_Cube.007
v 0.279284 0.177740 -0.188739
v 0.185454 -0.088581 0.000000
v 0.185454 -0.088581 -0.094572
v 0.185454 -0.088581 -0.094572
v 0.279284 0.177740 -0.188739
v 0.091404 0.177740 -0.188739
v 0.185454 -0.088581 0.000000
v 0.185454 -0.088581 0.000000
v 0.185454 -0.088581 -0.094572
v 0.185454 -0.088581 0.000000
v 0.091404 -0.088581 -0.094572
v 0.091404 -0.088581 0.000000
v 0.279284 0.177740 -0.188739
v 0.091404 0.177740 -0.188739
v 0.091404 0.177740 0.000000
v 0.279284 0.177740 -0.188739
v 0.276878 0.177740 0.000000
v 0.091404 0.177740 -0.188739
v 0.091404 0.177740 0.000000
v 0.185454 -0.088581 0.000000
v -0.279284 0.177740 -0.188739
v -0.185454 -0.088581 0.000000
v -0.185454 -0.088581 -0.094572
v -0.185454 -0.088581 -0.094572
v -0.279284 0.177740 -0.188739
v -0.091404 0.177740 -0.188739
v -0.185454 -0.088581 0.000000
v -0.185454 -0.088581 0.000000
v -0.185454 -0.088581 -0.094572
v -0.185454 -0.088581 0.000000
v -0.091404 -0.088581 -0.094572
v -0.091404 -0.088581 0.000000
v -0.279284 0.177740 -0.188739
v -0.091404 0.177740 -0.188739
v -0.091404 0.177740 0.000000
v -0.279284 0.177740 -0.188739
v -0.276878 0.177740 0.000000
v -0.091404 0.177740 -0.188739
v -0.091404 0.177740 0.000000
v -0.185454 -0.088581 0.000000
v 0.279284 0.177740 0.188739
v 0.185454 -0.088581 0.094572
v 0.185454 -0.088581 0.094572
v 0.279284 0.177740 0.188739
v 0.091404 0.177740 0.188739
v 0.185454 -0.088581 0.094572
v 0.091404 -0.088581 0.094572
v 0.279284 0.177740 0.188739
v 0.091404 0.177740 0.188739
v 0.279284 0.177740 0.188739
v 0.091404 0.177740 0.188739
v -0.279284 0.177740 0.188739
v -0.185454 -0.088581 0.094572
v -0.185454 -0.088581 0.094572
v -0.279284 0.177740 0.188739
v -0.091404 0.177740 0.188739
v -0.185454 -0.088581 0.094572
v -0.091404 -0.088581 0.094572
v -0.279284 0.177740 0.188739
v -0.091404 0.177740 0.188739
v -0.279284 0.177740 0.188739
v -0.091404 0.177740 0.188739
vt 0.437703 0.562500
vt 0.437703 0.625000
vt 0.437703 0.625000
vt 0.000000 0.000000
vt 0.437703 0.562500
vt 0.437703 0.625000
vt 0.625000 0.562500
vt 0.437703 0.562500
vt 0.437703 0.562500
vt 0.437703 0.562500
vt 0.625000 0.562500
vt 0.000000 0.000000
vt 0.000000 0.000000
vt 0.437703 0.625000
vt 0.437703 0.625000
vt 0.000000 0.000000
vt 0.437703 0.625000
vt 0.437703 0.562500
vt 0.437703 0.625000
vt 0.437703 0.562500
vt 0.000000 0.000000
vt 0.437703 0.625000
vt 0.437703 0.562500
vt 0.625000 0.562500
vt 0.437703 0.562500
vt 0.437703 0.562500
vt 0.000000 0.000000
vt 0.625000 0.562500
vt 0.000000 0.000000
vt 0.437703 0.625000
vt 0.437703 0.562500
vt 0.437703 0.625000
vt 0.000000 0.000000
vt 0.437703 0.562500
vt 0.437703 0.562500
vt 0.437703 0.562500
vt 0.625000 0.562500
vt 0.437703 0.562500
vt 0.437703 0.562500
vt 0.000000 0.000000
vt 0.625000 0.562500
vt 0.000000 0.000000
vt 0.437703 0.562500
vt 0.437703 0.562500
vt 0.437703 0.562500
vt 0.625000 0.562500
vt 0.437703 0.562500
vt 0.437703 0.562500
vt 0.437703 0.562500
vt 0.625000 0.562500
vt 0.000000 0.000000
vt 0.000000 0.000000
vt 0.437703 0.562500
vt 0.625000 0.562500
vt 0.625000 0.562500
vt 0.625000 0.562500
vt 0.437703 0.562500
vt 0.625000 0.562500
vn 0.0000 0.0000 1.0000
vn 0.0000 -1.0000 0.0000
vn 0.0000 -0.3334 -0.9428
vn 0.0000 1.0000 -0.0000
vn 0.9458 -0.3247 0.0000
vn -1.0000 0.0000 0.0000
vn -0.9458 -0.3247 0.0000
vn 1.0000 0.0000 0.0000
vn 0.0000 -0.3334 0.9428
vn 0.9444 -0.3285 0.0120
vn -0.9444 -0.3285 0.0120
vn 0.9444 -0.3285 -0.0120
vn -0.9444 -0.3285 -0.0120
usemtl None
s off
f 3/1/1 7/2/1 2/3/1
f 12/4/2 9/5/2 10/6/2
f 1/7/1 4/8/1 3/1/1
f 18/9/3 9/5/3 11/10/3
f 4/8/1 10/6/1 7/2/1
f 5/11/1 14/12/1 6/13/1
f 17/14/4 18/9/4 19/15/4
f 9/5/5 17/14/5 10/6/5
f 19/15/6 11/10/6 12/4/6
f 10/6/1 15/16/1 12/4/1
f 27/17/1 23/18/1 22/19/1
f 29/20/2 32/21/2 30/22/2
f 24/23/1 21/24/1 23/18/1
f 29/20/3 38/25/3 31/26/3
f 30/22/1 24/23/1 27/17/1
f 34/27/1 25/28/1 26/29/1
f 37/30/4 38/25/4 36/31/4
f 37/30/7 29/20/7 30/22/7
f 31/26/8 39/32/8 32/21/8
f 30/22/1 35/33/1 37/30/1
f 7/2/1 42/34/1 2/3/1
f 46/35/2 12/4/2 10/6/2
f 43/36/1 41/37/1 42/34/1
f 46/35/9 51/38/9 47/39/9
f 10/6/1 43/36/1 7/2/1
f 49/40/1 44/41/1 45/42/1
f 17/14/4 51/38/4 50/43/4
f 17/14/5 46/35/5 10/6/5
f 47/39/6 19/15/6 12/4/6
f 53/44/1 27/17/1 22/19/1
f 32/21/2 57/45/2 30/22/2
f 52/46/1 54/47/1 53/44/1
f 62/48/9 57/45/9 58/49/9
f 54/47/1 30/22/1 27/17/1
f 55/50/1 60/51/1 56/52/1
f 37/30/4 62/48/4 39/32/4
f 57/45/7 37/30/7 30/22/7
f 39/32/8 58/49/8 32/21/8
f 3/1/1 4/8/1 7/2/1
f 12/4/2 11/10/2 9/5/2
f 1/7/1 5/11/1 4/8/1
f 18/9/3 16/53/3 9/5/3
f 4/8/1 9/5/1 10/6/1
f 5/11/1 13/54/1 14/12/1
f 17/14/4 16/53/4 18/9/4
f 9/5/10 16/53/10 17/14/10
f 19/15/6 18/9/6 11/10/6
f 10/6/1 17/14/1 15/16/1
f 27/17/1 24/23/1 23/18/1
f 29/20/2 31/26/2 32/21/2
f 24/23/1 25/28/1 21/24/1
f 29/20/3 36/31/3 38/25/3
f 30/22/1 29/20/1 24/23/1
f 34/27/1 33/55/1 25/28/1
f 37/30/4 39/32/4 38/25/4
f 37/30/11 36/31/11 29/20/11
f 31/26/8 38/25/8 39/32/8
f 30/22/1 32/21/1 35/33/1
f 7/2/1 43/36/1 42/34/1
f 46/35/2 47/39/2 12/4/2
f 43/36/1 44/41/1 41/37/1
f 46/35/9 50/43/9 51/38/9
f 10/6/1 46/35/1 43/36/1
f 49/40/1 48/56/1 44/41/1
f 17/14/4 19/15/4 51/38/4
f 17/14/12 50/43/12 46/35/12
f 47/39/6 51/38/6 19/15/6
f 53/44/1 54/47/1 27/17/1
f 32/21/2 58/49/2 57/45/2
f 52/46/1 55/50/1 54/47/1
f 62/48/9 61/57/9 57/45/9
f 54/47/1 57/45/1 30/22/1
f 55/50/1 59/58/1 60/51/1
f 37/30/4 61/57/4 62/48/4
f 57/45/13 61/57/13 37/30/13
f 39/32/8 62/48/8 58/49/8
l 6 1
l 7 8
l 6 15
l 19 15
l 20 10
l 26 21
l 27 28
l 26 35
l 39 35
l 40 30
l 45 41
l 45 15
l 56 52
l 56 35
