# Blender v3.0.0 OBJ File: 'stargate2.blend'
# www.blender.org
mtllib ChevronMiddle.mtl
o middle_chevron_Cube.006
v 0.154041 -0.177740 -0.126092
v 0.279284 0.177740 -0.377479
v 0.154041 -0.177740 0.000000
v 0.154041 -0.177740 -0.063046
v 0.279284 0.177740 -0.188739
v 0.185454 -0.088581 -0.189143
v 0.185454 -0.088581 0.000000
v 0.185454 -0.088581 -0.094572
v 0.091404 0.177740 -0.377479
v 0.091404 -0.177740 -0.126092
v 0.185454 -0.088581 -0.094572
v 0.279284 0.177740 -0.188739
v 0.091404 -0.177740 0.000000
v 0.091404 -0.177740 -0.063046
v 0.154041 -0.177740 0.000000
v 0.091404 0.177740 -0.188739
v -0.091404 0.177740 -0.188739
v 0.185454 -0.088581 0.000000
v 0.091404 -0.088581 -0.189143
v 0.154041 -0.177740 0.000000
v 0.185454 -0.088581 0.000000
v 0.185454 -0.088581 -0.094572
v 0.185454 -0.088581 0.000000
v 0.091404 -0.088581 -0.094572
v 0.091404 -0.088581 0.000000
v -0.154041 -0.177740 -0.126092
v -0.279284 0.177740 -0.377479
v -0.154041 -0.177740 0.000000
v -0.154041 -0.177740 -0.063046
v -0.279284 0.177740 -0.188739
v -0.185454 -0.088581 -0.189143
v -0.185454 -0.088581 0.000000
v -0.185454 -0.088581 -0.094572
v -0.091404 0.177740 -0.377479
v -0.091404 -0.177740 -0.126092
v -0.185454 -0.088581 -0.094572
v -0.279284 0.177740 -0.188739
v -0.091404 -0.177740 0.000000
v -0.091404 -0.177740 -0.063046
v -0.154041 -0.177740 0.000000
v -0.091404 0.177740 -0.188739
v 0.091404 0.177740 -0.188739
v -0.185454 -0.088581 0.000000
v -0.091404 -0.088581 -0.189143
v -0.154041 -0.177740 0.000000
v -0.185454 -0.088581 0.000000
v -0.185454 -0.088581 -0.094572
v -0.185454 -0.088581 0.000000
v -0.091404 -0.088581 -0.094572
v -0.091404 -0.088581 0.000000
v 0.154041 -0.177740 0.126092
v 0.279284 0.177740 0.377479
v 0.154041 -0.177740 0.063046
v 0.279284 0.177740 0.188739
v 0.185454 -0.088581 0.189143
v 0.185454 -0.088581 0.094572
v 0.091404 0.177740 0.377479
v 0.091404 -0.177740 0.126092
v 0.185454 -0.088581 0.094572
v 0.279284 0.177740 0.188739
v 0.091404 -0.177740 0.063046
v 0.091404 0.177740 0.188739
v -0.091404 0.177740 0.188739
v 0.091404 -0.088581 0.189143
v 0.185454 -0.088581 0.094572
v 0.091404 -0.088581 0.094572
v -0.154041 -0.177740 0.126092
v -0.279284 0.177740 0.377479
v -0.154041 -0.177740 0.063046
v -0.279284 0.177740 0.188739
v -0.185454 -0.088581 0.189143
v -0.185454 -0.088581 0.094572
v -0.091404 0.177740 0.377479
v -0.091404 -0.177740 0.126092
v -0.185454 -0.088581 0.094572
v -0.279284 0.177740 0.188739
v -0.091404 -0.177740 0.063046
v -0.091404 0.177740 0.188739
v 0.091404 0.177740 0.188739
v -0.091404 -0.088581 0.189143
v -0.185454 -0.088581 0.094572
v -0.091404 -0.088581 0.094572
vt 0.375000 0.500000
vt 0.324172 0.562500
vt 0.324172 0.500000
vt 0.437703 0.562500
vt 0.437703 0.625000
vt 0.437703 0.625000
vt 0.375000 0.625000
vt 0.375000 0.625000
vt 0.437703 0.562500
vt 0.000000 0.000000
vt 0.437703 0.562500
vt 0.437703 0.625000
vt 0.000000 0.000000
vt 0.324172 0.625000
vt 0.625000 0.562500
vt 0.437703 0.562500
vt 0.709090 0.562500
vt 0.709090 0.500000
vt 0.000000 0.000000
vt 0.375000 0.562500
vt 0.625000 0.500000
vt 0.000000 0.000000
vt 0.000000 0.000000
vt 0.000000 0.000000
vt 0.000000 0.000000
vt 0.375000 0.625000
vt 0.437703 0.625000
vt 0.324172 0.562500
vt 0.375000 0.500000
vt 0.324172 0.500000
vt 0.437703 0.625000
vt 0.437703 0.562500
vt 0.437703 0.625000
vt 0.375000 0.625000
vt 0.375000 0.625000
vt 0.000000 0.000000
vt 0.437703 0.562500
vt 0.437703 0.562500
vt 0.000000 0.000000
vt 0.437703 0.625000
vt 0.324172 0.625000
vt 0.437703 0.562500
vt 0.625000 0.562500
vt 0.000000 0.000000
vt 0.375000 0.562500
vt 0.709090 0.500000
vt 0.625000 0.500000
vt 0.000000 0.000000
vt 0.000000 0.000000
vt 0.000000 0.000000
vt 0.000000 0.000000
vt 0.375000 0.625000
vt 0.437703 0.625000
vt 0.324172 0.562500
vt 0.375000 0.500000
vt 0.324172 0.500000
vt 0.437703 0.562500
vt 0.000000 0.000000
vt 0.437703 0.562500
vt 0.437703 0.562500
vt 0.000000 0.000000
vt 0.437703 0.562500
vt 0.625000 0.562500
vt 0.000000 0.000000
vt 0.375000 0.562500
vt 0.709090 0.500000
vt 0.625000 0.500000
vt 0.000000 0.000000
vt 0.375000 0.500000
vt 0.324172 0.562500
vt 0.324172 0.500000
vt 0.437703 0.562500
vt 0.437703 0.562500
vt 0.000000 0.000000
vt 0.437703 0.562500
vt 0.000000 0.000000
vt 0.625000 0.562500
vt 0.437703 0.562500
vt 0.709090 0.562500
vt 0.709090 0.500000
vt 0.000000 0.000000
vt 0.375000 0.562500
vt 0.625000 0.500000
vt 0.000000 0.000000
vt 0.000000 0.000000
vt 0.625000 0.562500
vt 0.000000 0.000000
vt 0.437703 0.625000
vt 0.000000 0.000000
vt 0.625000 0.562500
vt 0.709090 0.562500
vt 0.000000 0.000000
vt 0.437703 0.625000
vt 0.000000 0.000000
vt 0.625000 0.562500
vt 0.709090 0.562500
vt 0.000000 0.000000
vt 0.625000 0.562500
vn 0.0000 -1.0000 0.0000
vn 0.0000 0.0000 1.0000
vn 0.0000 0.3334 0.9428
vn -1.0000 -0.0000 0.0000
vn 0.9432 -0.3323 0.0000
vn 0.0000 1.0000 0.0000
vn 0.0000 -0.5774 -0.8165
vn 1.0000 -0.0000 0.0000
vn -0.9432 -0.3323 0.0000
vn 0.0000 0.3334 -0.9428
vn 0.0000 -0.5774 0.8165
usemtl Material.003
s off
f 1/1/1 14/2/1 10/3/1
f 8/4/2 18/5/2 7/6/2
f 7/6/2 15/7/2 3/8/2
f 22/9/3 16/10/3 24/11/3
f 25/12/4 14/13/4 13/14/4
f 5/15/2 11/16/2 8/4/2
f 16/17/4 9/18/4 19/19/4
f 4/20/5 7/6/5 3/8/5
f 4/20/1 13/14/1 14/2/1
f 18/5/2 25/12/2 13/14/2
f 9/18/6 5/15/6 2/21/6
f 9/18/7 2/21/7 6/22/7
f 13/23/2 15/24/2 18/25/2
f 18/5/2 20/26/2 15/7/2
f 11/16/2 23/27/2 18/5/2
f 22/9/6 25/12/6 23/27/6
f 1/1/5 5/15/5 4/20/5
f 39/28/1 26/29/1 35/30/1
f 43/31/2 33/32/2 32/33/2
f 40/34/2 32/33/2 28/35/2
f 41/36/3 47/37/3 49/38/3
f 39/39/8 50/40/8 38/41/8
f 36/42/2 30/43/2 33/32/2
f 39/39/8 35/30/8 44/44/8
f 29/45/9 32/33/9 33/32/9
f 38/41/1 29/45/1 39/28/1
f 50/40/2 43/31/2 38/41/2
f 30/43/6 34/46/6 27/47/6
f 34/46/7 44/44/7 31/48/7
f 40/49/2 38/50/2 43/51/2
f 45/52/2 43/31/2 40/34/2
f 48/53/2 36/42/2 43/31/2
f 50/40/6 47/37/6 48/53/6
f 30/43/9 26/29/9 29/45/9
f 61/54/1 51/55/1 58/56/1
f 18/5/2 56/57/2 7/6/2
f 62/58/10 65/59/10 66/60/10
f 61/61/4 25/12/4 13/14/4
f 59/62/2 54/63/2 56/57/2
f 61/61/4 58/56/4 64/64/4
f 53/65/5 7/6/5 56/57/5
f 13/14/1 53/65/1 61/54/1
f 54/63/6 57/66/6 52/67/6
f 57/66/11 64/64/11 55/68/11
f 23/27/2 59/62/2 18/5/2
f 25/12/6 65/59/6 23/27/6
f 54/63/5 51/55/5 53/65/5
f 67/69/1 77/70/1 74/71/1
f 72/72/2 43/31/2 32/33/2
f 81/73/10 78/74/10 82/75/10
f 50/40/8 77/76/8 38/41/8
f 70/77/2 75/78/2 72/72/2
f 78/79/8 73/80/8 80/81/8
f 69/82/9 32/33/9 28/35/9
f 69/82/1 38/41/1 77/70/1
f 73/80/6 70/77/6 68/83/6
f 73/80/11 68/83/11 71/84/11
f 75/78/2 48/53/2 43/31/2
f 81/73/6 50/40/6 48/53/6
f 67/69/9 70/77/9 69/82/9
f 1/1/1 4/20/1 14/2/1
f 8/4/2 11/16/2 18/5/2
f 7/6/2 18/5/2 15/7/2
f 22/9/3 12/85/3 16/10/3
f 25/12/4 24/11/4 14/13/4
f 5/15/2 12/86/2 11/16/2
f 19/19/4 10/3/4 14/13/4
f 14/13/4 16/17/4 19/19/4
f 4/20/5 8/4/5 7/6/5
f 4/20/1 3/8/1 13/14/1
f 18/5/2 23/27/2 25/12/2
f 9/18/6 16/17/6 5/15/6
f 6/22/7 1/1/7 19/19/7
f 1/1/7 10/3/7 19/19/7
f 19/19/7 9/18/7 6/22/7
f 13/23/2 3/87/2 15/24/2
f 18/5/2 21/88/2 20/26/2
f 11/16/2 22/9/2 23/27/2
f 22/9/6 24/11/6 25/12/6
f 1/1/5 2/21/5 5/15/5
f 39/28/1 29/45/1 26/29/1
f 43/31/2 36/42/2 33/32/2
f 40/34/2 43/31/2 32/33/2
f 41/36/3 37/89/3 47/37/3
f 39/39/8 49/38/8 50/40/8
f 36/42/2 37/90/2 30/43/2
f 44/44/8 34/46/8 41/91/8
f 41/91/8 39/39/8 44/44/8
f 29/45/9 28/35/9 32/33/9
f 38/41/1 28/35/1 29/45/1
f 50/40/2 48/53/2 43/31/2
f 30/43/6 41/91/6 34/46/6
f 35/30/7 26/29/7 44/44/7
f 26/29/7 31/48/7 44/44/7
f 31/48/7 27/47/7 34/46/7
f 40/49/2 28/92/2 38/50/2
f 45/52/2 46/93/2 43/31/2
f 48/53/2 47/37/2 36/42/2
f 50/40/6 49/38/6 47/37/6
f 30/43/9 27/47/9 26/29/9
f 61/54/1 53/65/1 51/55/1
f 18/5/2 59/62/2 56/57/2
f 62/58/10 60/94/10 65/59/10
f 61/61/4 66/60/4 25/12/4
f 59/62/2 60/95/2 54/63/2
f 64/64/4 57/66/4 62/96/4
f 62/96/4 61/61/4 64/64/4
f 53/65/5 3/8/5 7/6/5
f 13/14/1 3/8/1 53/65/1
f 54/63/6 62/96/6 57/66/6
f 58/56/11 51/55/11 64/64/11
f 51/55/11 55/68/11 64/64/11
f 55/68/11 52/67/11 57/66/11
f 23/27/2 65/59/2 59/62/2
f 25/12/6 66/60/6 65/59/6
f 54/63/5 52/67/5 51/55/5
f 67/69/1 69/82/1 77/70/1
f 72/72/2 75/78/2 43/31/2
f 81/73/10 76/97/10 78/74/10
f 50/40/8 82/75/8 77/76/8
f 70/77/2 76/98/2 75/78/2
f 80/81/8 74/71/8 77/76/8
f 77/76/8 78/79/8 80/81/8
f 69/82/9 72/72/9 32/33/9
f 69/82/1 28/35/1 38/41/1
f 73/80/6 78/79/6 70/77/6
f 71/84/11 67/69/11 80/81/11
f 67/69/11 74/71/11 80/81/11
f 80/81/11 73/80/11 71/84/11
f 75/78/2 81/73/2 48/53/2
f 81/73/6 82/75/6 50/40/6
f 67/69/9 68/83/9 70/77/9
