# Blender v3.0.0 OBJ File: 'ControlRoom.blend'
# www.blender.org
mtllib Door.mtl
o room_Plane.001
v 34.531391 4.697354 17.587990
v 50.267189 -6.713163 17.587988
v 34.531391 -6.713163 17.587988
v 50.267189 -6.713157 -17.587992
v 34.531391 4.697360 -17.587990
v 34.531391 -6.713157 -17.587992
v 50.267189 4.697354 17.587990
v 50.267189 4.697360 -17.587990
vt 0.000000 1.000000
vt 0.000000 0.000000
vt 1.000000 1.000000
vt 1.000000 0.000000
vn 0.0000 0.0000 -1.0000
vn 0.0000 -0.0000 1.0000
usemtl Material.002
s 1
f 1/4/1 2/1/1 3/3/1
f 1/4/1 7/2/1 2/1/1
f 4/3/2 8/4/2 5/2/2
f 4/3/2 5/2/2 6/1/2
	