# Blender v3.0.0 OBJ File: 'ControlRoom.blend'
# www.blender.org
mtllib roomChunk3.mtl
o room_Plane.002
v 52.775841 16.107874 0.000003
v -30.643335 16.107870 16.327568
v -30.643335 16.107874 0.000003
v 52.775841 16.107870 16.327568
v -30.643335 16.107874 -16.327564
v 52.775841 16.107874 -16.327564
vt 1.000000 0.000000
vt 0.000000 1.000000
vt 1.000000 1.000000
vt 0.000000 0.000000
vt 0.000000 1.000000
vt 0.000000 0.000000
vn 0.0000 -1.0000 -0.0000
usemtl None.001
s 1
f 1/1/1 2/2/1 3/3/1
f 1/1/1 4/4/1 2/2/1
f 1/1/1 3/3/1 5/5/1
f 1/1/1 5/5/1 6/6/1
